<svg width="24" height="24" fill="none" xmlns="http://www.w3.org/2000/svg"><path d="M20.0618 7.71507c.5437-1.11307.854-2.31936.9129-3.54914.059-1.22978-.1346-2.45867-.5696-3.615633-.046-.140967-.1338-.265749-.2526-.358865-.1187-.0931159-.263-.1504676-.4151-.1649396-.1521-.014472-.3052.0145727-.4404.0835306-.1352.068958-.2465.174794-.32.304378-.9912 1.713809-3.1217 4.477039-4.6826 4.605379h-.0702c-.7176-.1365-1.4462-.21229-2.1774-.22649-.7338.01403-1.4649.08982-2.18516.22649h-.05462C8.24617 4.89899 6.0844 2.13576 5.08546.42195 5.01579.284823 4.90475.171374 4.76701.0965953c-.13773-.074779-.29568-.1073682-.45297-.09346096C4.15675.0170416 4.00752.0767907 3.88608.174486c-.12144.097695-.20938.228738-.2522.375811-.4425 1.152893-.64347 2.379433-.59121 3.608193.05225 1.22876.35668 2.43519.89557 3.54903-1.35793.16609-3.082664.58888-3.707001 1.6534C.0797789 9.61317 0 9.89969 0 10.1914c0 .2917.0797789.5782.231239.8305.178775.3084.444863.5611.766982.7283.322119.1672.686879.2419 1.051399.2154.64663-.0128 1.2859-.1354 1.88862-.3624-.00535.4074.02861.8143.10146 1.2155.34835 1.3412.805 2.6539 1.36574 3.9259.14828.3549.31216.755.39801.9966-.25636.606-.45744 1.2325-.60092 1.8724-.03706.4521.02131.9067.17157 1.3364.15026.4296.38927.8251.7025 1.1625C7.20821 23.3658 9.19829 24 12.0234 24c2.8251 0 4.823-.6342 5.9468-1.8875.3148-.3364.5548-.7318.7052-1.1617.1503-.4298.2078-.885.1689-1.3372-.1408-.6397-.3393-1.2662-.5931-1.8724.0858-.2416.2497-.6342.3902-.9966.5666-1.2698 1.0234-2.583 1.3657-3.9259.0788-.4005.1154-.8078.1093-1.2155.583.2203 1.2006.3428 1.8262.3624.3655.0261.7312-.0487 1.0545-.2158.3233-.167.5909-.4195.7717-.7279.1514-.2523.2312-.5388.2312-.8305 0-.29171-.0798-.57823-.2312-.83048-.6166-1.02677-2.3413-1.47976-3.707-1.64585zm-.7414-5.01308c.2814 1.57881.0066 3.20331-.7805 4.61293-.1956-.22976-.404-.44903-.6243-.65683-.441-.39224-.9443-.71342-1.4906-.95127 1.1256-.84473 2.1033-1.85933 2.8954-3.00483zm-14.60174 0c.78424 1.15347 1.75986 2.17382 2.88757 3.01993-.54534.23129-1.04456.55325-1.475.95127-.22346.20713-.43452.42643-.63214.65683-.78939-1.41432-1.06426-3.04434-.78043-4.62803zM1.6438 10.2971c-.07024-.1208-.04682-.1585 0-.1887.1795-.29449 1.08479-.75503 2.81733-.92867-.08585.21894-.16389.43789-.23413.66438-1.01455.50579-2.37248.82289-2.5832.45299zm16.8259 2.2649c-.3269 1.2394-.7495 2.4533-1.2643 3.6315-.2038.4616-.3835.9328-.5385 1.4118l-.0468.2341.0858.2114c.2469.5756.4478 1.1688.601 1.7742.0082.2381-.0324.4754-.1194.6983-.0871.2229-.2189.4269-.3879.6002-.5619.6267-1.8418 1.3665-4.7684 1.3665-2.92656 0-4.20646-.7549-4.76836-1.3665-.33695-.3527-.51887-.8184-.50727-1.2985.15634-.6055.35983-1.1986.60873-1.7742l.08584-.2114-.05463-.2341c-.14652-.4832-.32375-.9572-.53069-1.4194-.5238-1.1841-.95171-2.4058-1.27989-3.6541-.14883-.8701-.07593-1.7623.21238-2.59907.28832-.83675.78334-1.59281 1.44212-2.20257C8.41786 6.58259 11.0869 6.3259 12.0156 6.31835c.9287-.00755 3.5431.25669 4.7918 1.42691.6628.60395 1.1613 1.35679 1.4512 2.19176.29.83498.3625 1.72628.2111 2.59478v.0302zm3.9021-2.2649c-.2029.3624-1.5608.0528-2.5286-.44544-.0624-.22649-.1404-.44544-.2263-.67193 1.7169.17364 2.6144.63418 2.7861.92867.039.0302.0547.0679-.0156.1887h-.0156z" fill="#323232"/></svg>