<svg width="32" height="32" fill="none" xmlns="http://www.w3.org/2000/svg"><path d="M16 0c-3.1645 0-6.25793.938384-8.88912 2.69649-2.63118 1.7581-4.68194 4.25696-5.89295 7.18057C.0069325 12.8007-.309921 16.0177.307443 19.1214c.617363 3.1037 2.141217 5.9547 4.378857 8.1923 2.23764 2.2376 5.08857 3.7615 8.1923 4.3789 3.1037.6173 6.3207.3005 9.2443-.9105 2.9237-1.211 5.4225-3.2618 7.1806-5.893C31.0616 22.2579 32 19.1645 32 16c0-4.2435-1.6857-8.31313-4.6863-11.31371C24.3131 1.68571 20.2435 0 16 0zm4.06 9.45H17v3.45h3v3.44h-3V25h-3v-8.66h-3V12.9h3V9.45c-.0551-.85425.2291-1.69574.7908-2.3417C15.3525 6.46234 16.1464 6.06407 17 6h3v3.45h.06z" fill="#fff" fill-opacity=".8"/></svg>