<svg width="36" height="36" fill="none" xmlns="http://www.w3.org/2000/svg"><path d="M18 35c9.3888 0 17-7.6112 17-17 0-9.38884-7.6112-17-17-17C8.61116 1 1 8.61116 1 18c0 9.3888 7.61116 17 17 17z" stroke="#fff" stroke-opacity=".7" stroke-width="2"/><path d="M18 2c-3.1645 0-6.2579.93838-8.88912 2.69649-2.63118 1.7581-4.68194 4.25696-5.89295 7.18061-1.211 2.9236-1.52785 6.1406-.91049 9.2443.61737 3.1037 2.14122 5.9547 4.37886 8.1923 2.23764 2.2376 5.0886 3.7615 8.1923 4.3789 3.1037.6173 6.3207.3005 9.2443-.9105 2.9237-1.211 5.4225-3.2618 7.1806-5.893C33.0616 24.2579 34 21.1645 34 18c0-4.2435-1.6857-8.31313-4.6863-11.31371C26.3131 3.68571 22.2435 2 18 2zm4.06 9.45H19v3.45h3v3.44h-3V27h-3v-8.66h-3V14.9h3v-3.45c-.0551-.8543.2291-1.69574.7908-2.3417C17.3525 8.46234 18.1464 8.06407 19 8h3v3.45h.06z" fill="#fff"/></svg>