<svg width="20" height="23" fill="none" xmlns="http://www.w3.org/2000/svg"><path opacity=".3" d="M10 21c-2.65216 0-5.1957-1.0536-7.07107-2.9289C1.05357 16.1957 0 13.6522 0 11v2c0 2.6522 1.05357 5.1957 2.92893 7.0711C4.8043 21.9464 7.34784 23 10 23c2.6522 0 5.1957-1.0536 7.0711-2.9289C18.9464 18.1957 20 15.6522 20 13v-2c0 2.6522-1.0536 5.1957-2.9289 7.0711C15.1957 19.9464 12.6522 21 10 21z" fill="#ABABAB"/><path d="M10 20c5.5228 0 10-4.4772 10-10 0-5.52285-4.4772-10-10-10C4.47715 0 0 4.47715 0 10c0 5.5228 4.47715 10 10 10z" fill="#fff"/><path d="M10 12c1.1046 0 2-.8954 2-2 0-1.10457-.8954-2-2-2-1.10457 0-2 .89543-2 2 0 1.1046.89543 2 2 2z" fill="#ABABAB"/></svg>