<svg width="15" height="13" fill="none" xmlns="http://www.w3.org/2000/svg"><path d="M10.8.00081161C10.1584.00001472 9.52561.149795 8.95246.438107S7.88182 1.14521 7.5 1.66081c-.38182-.5156-.87931-.934391-1.45246-1.222703C5.47439.149795 4.84158.00001472 4.2.00081161 3.11401-.0207343 2.06346.387449 1.2769 1.13655.490337 1.88566.0314232 2.91507 0 4.00081c0 3.18 7.5 8.99999 7.5 8.99999S15 7.22081 15 4.00081c-.0314-1.08574-.4903-2.11515-1.2769-2.86426C12.9365.387449 11.886-.0207343 10.8.00081161z" fill="#fff"/></svg>