<svg width="16" height="32" fill="none" xmlns="http://www.w3.org/2000/svg"><path d="M8 0C6.04198.00226696 4.15262.721694 2.68899 2.02231 1.22536 3.32294.288854 5.11465.0564701 7.05882H0V22.9459h16V7.05882h-.0565c-.2324-1.94417-1.1689-3.73588-2.6325-5.03651C11.8474.721694 9.95802.00226696 8 0zm6.1176 21.0635H1.88235v-8.6776c.17457.2105.39775.3753.65028.4803.25252.1049.5268.1468.79914.122 1.21411 0 2.0047-.6776 2.0047-1.5341v-.8188c-.01224-.113-.00054-.2273.03432-.3355.03486-.1081.09211-.2077.16802-.2923.07591-.08459.16878-.15223.27256-.19853.10379-.04631.21616-.07024.32981-.07024.11364 0 .22602.02393.3298.07024.10378.0463.19665.11394.27256.19853.07591.0846.13316.1842.16802.2923.03487.1082.04656.2225.03432.3355v3.0965c.00309.2491.05905.4948.16418.7207s.25702.4269.44564.5897c.18862.1628.40966.2838.64851.3548.23884.071.49003.0905.73697.0571.24106.0344.48663.018.72102-.0479.23439-.066.4524-.1801.6402-.3351.1878-.155.3412-.3475.4504-.5652.1091-.2176.1717-.4556.1837-.6988v-2.08c-.0152-.1755.0063-.3521.0631-.5188.0567-.1666.1475-.3197.2665-.4494.119-.1298.2637-.2334.4249-.3042.1611-.0709.3353-.1075.5114-.1075.176 0 .3502.0366.5113.1075.1612.0708.3059.1744.4249.3042.119.1297.2098.2828.2666.4494.0567.1667.0782.3433.063.5188-.0031.0281-.0031.0565 0 .0847.0238.1822.0944.3551.2049.5019.1105.1468.2572.2625.4257.3357V21.12l.0188-.0565zM6.58824 30.5882c0 .3745.14874.7335.41349.9983C7.26649 31.8513 7.62558 32 8 32s.73351-.1487.99827-.4135.4135-.6238.4135-.9983v-6.7011H6.58824v6.7011z" fill="#323232"/></svg>