<svg width="32" height="32" fill="none" xmlns="http://www.w3.org/2000/svg"><g opacity=".8" fill="#fff"><path d="M20.92 16c0 1.3155-.5226 2.5771-1.4527 3.5072-.9302.9302-2.1918 1.4528-3.5073 1.4528-1.3155 0-2.5771-.5226-3.5072-1.4528C11.5226 18.5771 11 17.3155 11 16c.001-.3842.048-.767.14-1.14h-.9v6.84h11.4v-6.84h-.9c.1006.3725.161.7547.18 1.14z"/><path d="M16 18.66c.5252-.004 1.0375-.1633 1.4723-.458.4348-.2947.7727-.7115.9709-1.1978.1983-.4864.2481-1.0206.1432-1.5353-.1048-.5147-.3598-.9868-.7325-1.3568-.3728-.37-.8468-.6213-1.3623-.7224-.5154-.101-1.0492-.0472-1.5341.1548-.4849.2019-.8991.5428-1.1906.9798-.2914.437-.4469.9505-.4469 1.4757.0013.3506.0717.6976.2071 1.021.1354.3234.3331.617.582.8641.2489.247.5439.4425.8684.5755.3244.133.6719.2007 1.0225.1994zM21.68 10.3h-3.04v3.04h3.04V10.3z"/><path d="M16 0c-3.1645 0-6.25793.938384-8.88912 2.69649-2.63118 1.7581-4.68194 4.25696-5.89295 7.18057C.0069325 12.8007-.309921 16.0177.307443 19.1214c.617363 3.1037 2.141217 5.9547 4.378857 8.1923 2.23764 2.2376 5.08857 3.7615 8.1923 4.3789 3.1037.6173 6.3207.3005 9.2443-.9105 2.9237-1.211 5.4225-3.2618 7.1806-5.893C31.0616 22.2579 32 19.1645 32 16c0-4.2435-1.6857-8.31313-4.6863-11.31371C24.3131 1.68571 20.2435 0 16 0zm8 21.7c.0027.3045-.0556.6064-.1715.888-.1158.2816-.2869.5371-.5032.7515-.2162.2144-.4732.3833-.7558.4967-.2826.1135-.585.1692-.8895.1638h-11.4c-.30072-.0013-.59825-.0618-.87558-.1781-.27733-.1163-.52905-.2861-.74076-.4997-.21172-.2136-.3793-.4668-.49317-.7451-.11387-.2783-.1718-.5764-.17048-.8771V10.3c-.00132-.30073.05661-.59877.17048-.87711.11387-.27834.28145-.53152.49317-.7451.21171-.21357.46343-.38336.74076-.49965.27733-.1163.57486-.17683.87558-.17814h11.39c.3049-.00533.6078.0503.891.16362.2831.11332.5407.28206.7578.4963.217.21424.3891.46967.5061.75131.1169.28164.1765.58381.1751.88877v11.4z"/></g></svg>