<svg width="36" height="36" fill="none" xmlns="http://www.w3.org/2000/svg"><path d="M18 35c9.3888 0 17-7.6112 17-17 0-9.38884-7.6112-17-17-17C8.61116 1 1 8.61116 1 18c0 9.3888 7.61116 17 17 17z" stroke="#fff" stroke-opacity=".7" stroke-width="2"/><path d="M22.92 18c0 1.3155-.5226 2.5771-1.4527 3.5072-.9302.9302-2.1918 1.4528-3.5073 1.4528-1.3155 0-2.5771-.5226-3.5072-1.4528C13.5226 20.5771 13 19.3155 13 18c.001-.3842.048-.767.14-1.14h-.9v6.84h11.4v-6.84h-.9c.1006.3725.161.7547.18 1.14z" fill="#fff"/><path d="M18 20.66c.5252-.004 1.0375-.1633 1.4723-.458.4348-.2947.7727-.7115.9709-1.1978.1983-.4864.2481-1.0206.1432-1.5353-.1048-.5147-.3598-.9868-.7325-1.3568-.3728-.37-.8468-.6213-1.3623-.7224-.5154-.101-1.0492-.0472-1.5341.1548-.4849.2019-.8991.5428-1.1906.9798-.2914.437-.4469.9505-.4469 1.4757.0013.3506.0717.6976.2071 1.021.1354.3234.3331.617.582.8641.2489.247.5439.4425.8684.5755.3244.133.6719.2007 1.0225.1994zM23.68 12.3h-3.04v3.04h3.04V12.3z" fill="#fff"/><path d="M18 2c-3.1645 0-6.2579.93838-8.88912 2.69649-2.63118 1.7581-4.68194 4.25696-5.89295 7.18061-1.211 2.9236-1.52785 6.1406-.91049 9.2443.61737 3.1037 2.14122 5.9547 4.37886 8.1923 2.23764 2.2376 5.0886 3.7615 8.1923 4.3789 3.1037.6173 6.3207.3005 9.2443-.9105 2.9237-1.211 5.4225-3.2618 7.1806-5.893C33.0616 24.2579 34 21.1645 34 18c0-4.2435-1.6857-8.31313-4.6863-11.31371C26.3131 3.68571 22.2435 2 18 2zm8 21.7c.0027.3045-.0556.6064-.1715.888-.1158.2816-.2869.5371-.5032.7515-.2162.2144-.4732.3833-.7558.4967-.2826.1135-.585.1692-.8895.1638h-11.4c-.3007-.0013-.5982-.0618-.8756-.1781-.2773-.1163-.529-.2861-.7407-.4997-.2118-.2136-.3793-.4668-.4932-.7451S9.99869 24.0007 10 23.7V12.3c-.00131-.3007.0566-.5988.1705-.8771.1139-.2783.2814-.5315.4932-.7451.2117-.2136.4634-.3834.7407-.4997.2774-.1163.5749-.1768.8756-.1781h11.39c.3049-.00533.6078.0503.891.1636.2831.1133.5407.2821.7578.4963.217.2143.3891.4697.5061.7513.1169.2817.1765.5838.1751.8888v11.4z" fill="#fff"/></svg>