<svg width="16" height="27" fill="none" xmlns="http://www.w3.org/2000/svg"><path d="M15.9923 15.5968C15.6436 7.93944 8.86521.523922 8.56309.201509h-.03874L8.43139.0967241 8.33068.0322414h-.43382L7.74967 0h-.03873L7.5715.0967241 7.48628.169267h-.03873C7.14543.523922.366988 7.9475.00288906 15.5968c-.00385208.0563-.00385208.1129 0 .1692v.8786C.297267 24.9468 7.74967 26.978 7.81165 26.9941h.19367c.06433.0079.12933.0079.19367 0 .06972 0 7.51441-2.0876 7.80101-10.3495v-.8786c0-.0564-.0077-.1128-.0077-.1692zM2.04804 12.7676c1.54735 1.3838 3.29684 2.5021 5.1826 3.3128v3.6674c-1.89796-.9753-4.8185-2.7082-5.67839-4.2316.06976-.9302.22805-1.8509.47255-2.7486h.02324zM3.5974 8.65681c1.01324 1.10121 2.25638 1.94509 3.63324 2.46649v3.1758c-1.73089-.7602-3.30797-1.8541-4.64807-3.2242.2947-.8251.63351-1.63236 1.01483-2.41809zm9.8462 2.41809c-1.3395 1.3708-2.9168 2.4649-4.64811 3.2242v-3.1758c1.36571-.5257 2.59791-1.36938 3.60221-2.46649.3908.77452.74 1.57099 1.0459 2.38589v.0322zM8.79549 9.41448V2.96621c1.03535 1.32113 1.98021 2.71632 2.82761 4.17525-.7472.98841-1.7263 1.76008-2.8431 2.24078l.01549.03224zm0 10.34952v-3.6836c1.89291-.8035 3.65031-1.9164 5.20581-3.2967.2373.9011.3878 1.8245.4493 2.7566-.8521 1.4993-3.7726 3.2242-5.6706 4.1914l.01549.0323zM7.24613 9.41448c-1.12192-.48684-2.10202-1.27042-2.84307-2.27302.84585-1.47278 1.79073-2.88148 2.82758-4.21556l.01549 6.48858zm-5.5312 8.64872c1.69428 1.3852 3.54696 2.5467 5.51571 3.4579v3.5466c-1.40841-.5954-2.65106-1.5484-3.61454-2.7719-.96347-1.2236-1.61708-2.6787-1.90117-4.2326zM8.78 25.0757v-3.5626c1.9704-.9047 3.8235-2.0638 5.5157-3.4499-.272 1.5598-.921 3.0219-1.886 4.2487-.9649 1.2268-2.214 2.1779-3.6297 2.7638z" fill="#323232"/></svg>