<svg width="7" height="12" fill="none" xmlns="http://www.w3.org/2000/svg"><path d="M.15889 6.34125l5.90872 5.50995c.10269.0953.24176.1488.38675.1488.14498 0 .28405-.0535.38675-.1488.05035-.0464.09031-.1017.11758-.1627.02727-.0609.04131-.1262.04131-.1923 0-.066-.01404-.1313-.04131-.1922-.02727-.061-.06723-.1163-.11758-.1628L1.3084 6.00125 6.84111.831247c.05035-.046481.09031-.101782.11758-.162712C6.98596.607606 7 .542253 7 .476248c0-.066006-.01404-.131359-.04131-.192289C6.93142.22303 6.89146.167728 6.84111.121247c-.10754-.0848166-.24605-.12779493-.38675-.11999959C6.38391.00044823 6.31406.013381 6.2493.0392141c-.06476.0258332-.12299.0639949-.17095.1120329L.15889 5.63125c-.050347.04648-.0903084.10178-.1175792.16271C.01404 5.85489 0 5.92024 0 5.98625c0 .066.01404.13136.0413108.19229.0272708.06093.0672322.11623.1175792.16271z" fill="#fff"/></svg>