<svg width="7" height="12" fill="none" xmlns="http://www.w3.org/2000/svg"><path d="M6.84111 5.65875L.932395.148752C.829699.05349.690626 0 .545642 0 .400659 0 .261586.05349.15889.148752.108543.195234.0685817.250534.041311.311464.0140403.372393 0 .437746 0 .503752 0 .569758.0140403.635111.041311.69604.0685817.75697.108543.812271.15889.858752L5.6916 5.99875.15889 11.1688c-.050347.0464-.0903083.1017-.117579.1627C.0140403 11.3924 0 11.4577 0 11.5238c0 .066.0140403.1313.041311.1922.0272707.061.067232.1163.117579.1628.107536.0848.246052.1277.386752.12.070449.0008.140298-.0122.205056-.038.064757-.0258.12299-.064.170953-.112L6.84111 6.36875c.05035-.04648.09031-.10178.11758-.16271C6.98596 6.14511 7 6.07976 7 6.01375c0-.066-.01404-.13136-.04131-.19229-.02727-.06093-.06723-.11623-.11758-.16271z" fill="#fff"/></svg>