<svg width="16" height="26" fill="none" xmlns="http://www.w3.org/2000/svg"><path d="M9.59048 4.11894c0-1.09241-.42143-2.14008-1.17157-2.91253C7.66877.433958 6.65136 0 5.59049 0 4.52963 0 3.51222.433958 2.76208 1.20641c-.75015.77245-1.17157 1.82012-1.17157 2.91253V16.1073C.565049 17.185-.00642404 18.6355.00005449 20.1443c-.00274975.9663.22744651 1.9182.66994351 2.7703.442502.8521 1.083462 1.5778 1.865402 2.112.78195.5342 1.68043.8602 2.61487.9488.93443.0886 1.87561-.063 2.73912-.4413.86351-.3782 1.62236-.9712 2.20851-1.7258.5861-.7547.9812-1.6473 1.1498-2.5978.1686-.9506.1054-1.9294-.1838-2.8487-.2892-.9192-.7955-1.7502-1.47342-2.4183V4.11894zm.14314 16.02536c.00804.7146-.16143 1.4194-.49231 2.0476-.33088.6281-.81219 1.1588-1.39823 1.5415-.58604.3828-1.25736.6049-1.95022.6454-.69287.0404-1.38428-.1021-2.00858-.4142-.62431-.3121-1.16079-.7833-1.55851-1.3689-.39772-.5856-.64348-1.2662-.71395-1.9771-.07046-.7109.03671-1.4286.31133-2.0849.27463-.6563.7076-1.2294 1.25781-1.6649V4.11894c0-.65805.25386-1.28915.70573-1.75447.45188-.46531 1.06475-.72672 1.7038-.72672.63905 0 1.25193.26141 1.7038.72672.45188.46532.70574 1.09642.70574 1.75447V16.7132c.53669.3851.97475.8984 1.27667 1.496.30192.5975.4587 1.2615.45692 1.9351z" fill="#323232"/><path d="M6.45729 17.5812V4.17626c0-.21718-.08378-.42546-.23292-.57903-.14913-.15357-.3514-.23984-.56231-.23984-.2109 0-.41317.08627-.56231.23984-.14913.15357-.23291.36185-.23291.57903V17.5812c-.53059.1932-.97778.5733-1.26253 1.0732-.28475.4998-.38873 1.0872-.29357 1.6584.09517.5711.38335 1.0893.81363 1.4628.43027.3735.97492.5784 1.53769.5784s1.10743-.2049 1.5377-.5784c.43027-.3735.71846-.8917.81362-1.4628.09517-.5712-.00881-1.1586-.29357-1.6584-.28475-.4999-.73194-.88-1.26252-1.0732zM16 3.2018h-4.7714v1.63775H16V3.2018zM16 6.4773h-4.7714v1.63775H16V6.4773zM16 9.7528h-4.7714v1.6377H16V9.7528zM16 13.0283h-4.7714v1.6377H16v-1.6377z" fill="#323232"/></svg>