<svg width="36" height="36" fill="none" xmlns="http://www.w3.org/2000/svg"><path d="M18 35c9.3888 0 17-7.6112 17-17 0-9.38884-7.6112-17-17-17C8.61116 1 1 8.61116 1 18c0 9.3888 7.61116 17 17 17z" stroke="#fff" stroke-opacity=".5" stroke-width="2"/><path d="M18 2c-3.1645 0-6.2579.93838-8.88912 2.69649-2.63118 1.7581-4.68194 4.25696-5.89295 7.18061-1.211 2.9236-1.52785 6.1406-.91049 9.2443.61737 3.1037 2.14122 5.9547 4.37886 8.1923 2.23764 2.2376 5.0886 3.7615 8.1923 4.3789 3.1037.6173 6.3207.3005 9.2443-.9105 2.9237-1.211 5.4225-3.2618 7.1806-5.893C33.0616 24.2579 34 21.1645 34 18c0-4.2435-1.6857-8.31313-4.6863-11.31371C26.3131 3.68571 22.2435 2 18 2zm7.94 12.81c-.25 6.52-3.46 10.83-11 10.7h-.48c-.45 0-4.54999-.44-5.34999-1.82 1.78889.2655 3.61279-.1406 5.11999-1.14-1.05-.29-2.92-.46-3.25-2.85.4128.1642.8641.2058 1.3.12C11 19 9.53001 18.3 9.61001 16.17c.41799.3193.93449.482 1.45999.46-.77-.23-2.14999-3.24-1-4.78 2 1.79 4.07 3.48 7.8 3.64.23-2.21 1.24-3.7 3.17-4.32.6975-.2367 1.4508-.2543 2.1586-.0505.7079.2037 1.3365.6192 1.8014 1.1905.74-.23 1.45-.47 2.19-.69-.0142.3371-.1054.6665-.2666.9629s-.3881.552-.6634.7471c.2567.0301.5168.0036.7621-.0776.2453-.0812.4699-.2152.6579-.3924-.1172.4385-.3357.8434-.6379 1.1821-.3022.3387-.6797.6017-1.1021.7679z" fill="#fff" fill-opacity=".8"/></svg>