<svg width="36" height="36" fill="none" xmlns="http://www.w3.org/2000/svg"><path d="M18 35c9.3888 0 17-7.6112 17-17 0-9.38884-7.6112-17-17-17C8.61116 1 1 8.61116 1 18c0 9.3888 7.61116 17 17 17z" stroke="#fff" stroke-opacity=".5" stroke-width="2"/><path d="M18.64 16.49c.3252.0004.6475-.0607.95-.18.2745-.1023.5022-.3015.64-.56.1043-.2536.1554-.5259.15-.8-.004-.2443-.0657-.4841-.18-.7-.1286-.2434-.3477-.4265-.61-.51-.3213-.113-.6594-.1705-1-.17h-2v3h.57c.59-.05 1.08-.06 1.48-.08zM20.12 19.08c-.369-.0699-.7448-.0968-1.12-.08h-2.39v3.5h2.45c.4157-.0047.8265-.0896 1.21-.25.321-.1108.5932-.3301.77-.62.1465-.2773.2221-.5864.22-.9.0153-.3518-.0752-.7002-.26-1-.2078-.3133-.5194-.5435-.88-.65z" fill="#fff" fill-opacity=".8"/><path d="M18 2c-3.1645 0-6.2579.93838-8.88912 2.69649-2.63118 1.7581-4.68194 4.25696-5.89295 7.18061-1.211 2.9236-1.52785 6.1406-.91049 9.2443.61737 3.1037 2.14122 5.9547 4.37886 8.1923 2.23764 2.2376 5.0886 3.7615 8.1923 4.3789 3.1037.6173 6.3207.3005 9.2443-.9105 2.9237-1.211 5.4225-3.2618 7.1806-5.893C33.0616 24.2579 34 21.1645 34 18c0-4.2435-1.6857-8.31313-4.6863-11.31371C26.3131 3.68571 22.2435 2 18 2zm6.6 20.53c-.2624.526-.6463.9819-1.12 1.33-.5458.4114-1.1678.7105-1.83.88-.8214.1983-1.6652.289-2.51.27H13V11h5.45c.8281-.0132 1.6563.0235 2.48.11.543.084 1.0694.2527 1.56.5.4968.2362.9113.6158 1.19 1.09.2655.4728.4001 1.0079.39 1.55.0119.6416-.1769 1.2709-.54 1.8-.3848.538-.9158.9545-1.53 1.2v.07c.8272.1388 1.5898.5341 2.18 1.13.5495.6212.8363 1.4315.8 2.26.0243.6286-.1062 1.2536-.38 1.82z" fill="#fff" fill-opacity=".8"/></svg>