<svg width="21" height="20" fill="none" xmlns="http://www.w3.org/2000/svg"><path d="M7.03359 20c1.11305 0 2.01535-.8954 2.01535-2s-.9023-2-2.01535-2c-1.11305 0-2.01536.8954-2.01536 2s.90231 2 2.01536 2zM16.1027 20c1.113 0 2.0153-.8954 2.0153-2s-.9023-2-2.0153-2c-1.1131 0-2.0154.8954-2.0154 2s.9023 2 2.0154 2zM5.70345 2l-.24184-2H0v2h3.66795l1.51151 13H19.2869L21 2H5.70345zM17.5034 13H6.97313L5.96545 4H18.6924l-1.189 9z" fill="#343434"/><path d="M5.93506 4.03003L6.97297 13H17.5032l1.1891-8.96997H5.93506z" fill="#E84D37"/></svg>