<svg width="34" height="27" fill="none" xmlns="http://www.w3.org/2000/svg"><path d="M6.94683.795067C6.05965 3.40361 5.28819 6.03161 4.56495 8.66935 4.00878 5.8766 3.69898 3.03958 3.6392.191599c0-.418534-1.87078-.1070668-1.86114.506135.12619 4.082056.68876 8.138426 1.67792 12.098566C2.30844 17.2542 1.2284 21.7315.00371283 26.1991c-.09643213.3796 1.71648717.1363 1.84185717-.3407.86789-3.173 1.65863-6.3558 2.45902-9.5386.7811 3.1244 1.59113 6.239 2.19865 9.4024.09643.4964 1.92864.0487 1.86114-.5062-.82932-4.341-2.04436-8.5945-3.03761-12.8869C6.35859 8.34815 7.45792 4.38667 8.77904.464133c.12536-.360134-1.67792-.146-1.83221.330934zM20.8427 1.31093c.0482-.973331-1.8515-.778664-1.9286.1168-.0048.0778-.0048.15581 0 .23361-.0455.06086-.0783.13039-.0965.2044-1.0829 4.30688-2.3799 8.55596-3.8862 12.73126-.6172 1.8785-1.0993 3.7862-1.6104 5.694-.1254-6.463-.1254-12.89672-.1543-19.320733 0-.97333497-1.9286-.749468-1.9286.136263 0 8.10789 0 16.19627.2893 24.33337-.025.0957-.025.1963 0 .292l.0578.4283c.1157.8371 1.9287.4672 1.9287-.3018 1.5718-4.0588 2.3818-8.3609 3.7512-12.4976.5014-1.5184 1.0125-3.027 1.5043-4.53572-.0675 5.84002.0579 11.68002.2025 17.52002 0 .9734 1.5236.7495 1.8419.0584l.0578-.1168c.0531-.079.0815-.1722.0815-.2676 0-.0955-.0284-.1887-.0815-.2677-.2411-8.2344-.4146-16.33258-.0289-24.44047zM33.3017.201332c-3.0366.288762-6.0926.305048-9.1321.048667-.4822 0-2.1601.827331-1.1861.876001.974.04867 2.1119.10707 3.163.146-.0965.07787-.164.16547-.1543.25307.2796 8.18575-1.0222 16.78033.1832 24.88823.0579.4088 1.9286 0 1.8611-.5062-1.1861-8.0105.0675-16.54668-.1735-24.59617 1.7171.02391 3.4339-.06387 5.1398-.2628.8197-.077863 1.6104-1.0025312.2989-.846798z" fill="#231F20"/></svg>