<svg width="16" height="16" fill="none" xmlns="http://www.w3.org/2000/svg"><path d="M16 14.6652l-4.9215-4.93226c.9042-1.25106 1.3041-2.79793 1.1199-4.3316-.1843-1.53367-.939-2.94124-2.1136-3.94152C8.91022.45954 7.40233-.0598191 5.86234.00548954 4.32234.0707982 2.86363.715967 1.77757 1.81212.691516 2.90827.0580813 4.3747.0038002 5.91849-.050481 7.46228.478388 8.96976 1.48476 10.1398c1.00637 1.17 2.41616 1.9165 3.94775 2.0903 1.53158.1738 3.07221-.2379 4.31412-1.1529L14.6586 16 16 14.6652zm-9.91848-4.2885c-.84073 0-1.66257-.2499-2.36161-.71796-.69904-.46811-1.24387-1.13344-1.5656-1.91187-.32173-.77843-.40591-1.63499-.2419-2.46136.16402-.82638.56887-1.58545 1.16335-2.18124.59448-.59578 1.3519-1.00151 2.17647-1.16589.82457-.16437 1.67926-.08001 2.45599.24242.77673.32244 1.44061.86847 1.90769 1.56903.46709.70057.71639 1.52421.71639 2.36678-.0025 1.12907-.45115 2.21119-1.24779 3.00957-.79663.79838-1.87638 1.24802-3.00299 1.25052z" fill="#fff"/></svg>