<svg width="108" height="39" fill="none" xmlns="http://www.w3.org/2000/svg"><path d="M44.582 28.426c.1878-.0116.3733-.0489.552-.1109v1.4112c-.3776.1482-.7774.2233-1.1802.2217-.3421.0359-.6862-.0419-.9846-.2225-.2985-.1807-.5365-.4552-.681-.7855-.8888.7574-2.0004 1.1605-3.1409 1.1391-1.5134 0-2.9125-.877-2.9125-2.7015 0-2.2579 1.9797-2.9535 3.712-2.9535.7297.0114 1.4566.0992 2.1701.2621v-.3125c0-1.0987-.7615-1.8749-2.1892-1.8749-1.0337.0035-2.0551.237-2.9981.6855v-1.8144c1.0263-.3748 2.1029-.5722 3.1885-.5847 2.3604 0 3.8072 1.1895 3.8072 3.8607v3.1652c-.0133.1509.0302.3012.1212.4183.0909.1171.2218.1913.3642.2066.0572.0067.1151.0033.1713-.01zm-6.4341-1.2097c.0291.3783.1988.7288.4719.9745.2731.2458.6272.3666.9843.336h.1047c.8969.0137 1.7625-.3486 2.4081-1.0081v-1.5221c-.5949-.134-1.2004-.2083-1.8085-.2217-1.0469 0-2.1605.3528-2.1605 1.4616v-.0202zM50.5022 20.7651c.898-.0208 1.7851.2123 2.5698.6753v1.8044c-.6795-.487-1.4829-.7437-2.3033-.7359-.7256-.0613-1.4446.1844-1.9994.6833-.5548.499-.9003 1.2105-.9608 1.9787-.0604.7682.1691 1.5305.6383 2.1198.4692.5893 1.1399.9577 1.865 1.0244.1521.0101.3047.0101.4569 0 .8504-.0001 1.6864-.2328 2.427-.6754v1.8144c-.8648.4208-1.8087.6276-2.7602.6048-.5514.0411-1.1052-.0336-1.6293-.2198-.5242-.1862-1.0084-.4802-1.425-.8651-.4165-.385-.7572-.8533-1.0023-1.3781-.2452-.5248-.3901-1.0957-.4263-1.6799v-.4334c-.0191-.6006.074-1.1992.2738-1.7616.1999-.5624.5026-1.0775.8907-1.5158.3882-.4382.8542-.791 1.3714-1.0382.5172-.2471 1.0753-.3837 1.6425-.4019.1235-.0096.2476-.0096.3712 0zM62.6661 28.426c.1877-.0116.3733-.0489.552-.1109v1.4112c-.3777.1482-.7774.2233-1.1802.2217-.3421.0359-.6862-.0419-.9847-.2225-.2984-.1807-.5364-.4552-.6809-.7855-.8889.7574-2.0004 1.1605-3.141 1.1391-1.5133 0-2.9124-.877-2.9124-2.7015 0-2.2579 1.9797-2.9535 3.7119-2.9535.7298.0114 1.4567.0992 2.1701.2621v-.3125c0-1.0987-.7614-1.8749-2.1891-1.8749-1.0337.0035-2.0551.237-2.9981.6855v-1.8144c1.0263-.3748 2.1029-.5722 3.1885-.5847 2.3604 0 3.8071 1.1895 3.8071 3.8607v3.1652c-.0132.1509.0303.3012.1212.4183.091.1171.2219.1913.3643.2066.0572.0067.1151.0033.1713-.01zm-6.4341-1.2097c.0291.3783.1988.7288.4719.9745.2731.2458.6271.3666.9843.336h.1047c.8968.0137 1.7624-.3486 2.408-1.0081v-1.5221c-.5948-.134-1.2003-.2083-1.8084-.2217-1.0565 0-2.1605.3528-2.1605 1.4616v-.0202zM72.974 16.9648v12.8623h-1.6751V28.426c-.3712.5204-.8539.9399-1.4083 1.2238-.5544.284-1.1646.4242-1.7803.4091-1.1137-.0777-2.1579-.6011-2.9208-1.464-.7628-.8629-1.1873-2.0008-1.1873-3.1829 0-1.1821.4245-2.32 1.1873-3.1829.7629-.8629 1.8071-1.3863 2.9208-1.464.5675-.0164 1.1313.1018 1.65.346.5188.2442.9794.6081 1.3482 1.0652v-5.2115h1.9036-.0381zm-4.5305 5.524c-.7321 0-1.4342.3079-1.9518.8562-.5176.5482-.8084 1.2917-.8084 2.067 0 .7753.2908 1.5188.8084 2.067.5176.5482 1.2197.8562 1.9518.8562.5664.0047 1.1213-.1692 1.5942-.4994.4728-.3303.8423-.8021 1.0613-1.3553v-2.1471c-.2256-.5474-.5969-1.0134-1.0685-1.341-.4716-.3276-1.023-.5026-1.587-.5036zM78.9989 20.7651c3.3122 0 4.4543 2.8325 3.9213 5.3827h-6.2723c.2094 1.5826 1.6657 2.2378 3.1885 2.2378.9117.0006 1.8121-.2128 2.6365-.6249v1.6934c-.9437.4264-1.963.6327-2.9886.6048-2.5508 0-4.759-1.5422-4.759-4.6469-.0544-1.1717.3316-2.3185 1.0737-3.1894.7421-.8709 1.7797-1.395 2.8858-1.4575h.3141zm.0856 1.6329c-.2981-.0247-.598.013-.8824.1111-.2843.098-.5477.2546-.7749.4605-.2272.206-.4138.4574-.5491.7399-.1354.2824-.2168.5903-.2397.9062v.0604h4.6162c.0264-.2713.0019-.5456-.0718-.8069-.0738-.2614-.1955-.5049-.3581-.7164-.1627-.2116-.3631-.3871-.5898-.5166-.2267-.1295-.4753-.2105-.7316-.2382-.1389-.0201-.2798-.0201-.4188 0zM84.8048 21.007h1.6466v1.0987c.3508-.4145.7788-.7476 1.2571-.9784.4783-.2307.9966-.3541 1.5221-.3622.513-.0343 1.0251.0788 1.4825.3272.4573.2484.8428.6229 1.1159 1.084.3727-.4283.8221-.7737 1.3222-1.016.5001-.2423 1.0407-.3766 1.5903-.3952.4352-.0148.8684.0686 1.2709.2444.4024.1759.7651.4403 1.0638.7758.2987.3354.5268.7343.6691 1.1701.1423.4358.1955.8986.1562 1.3579v5.5138h-1.9036v-5.4534c.0426-.4437-.0829-.8871-.3488-1.233-.2659-.3459-.6505-.5658-1.0694-.6116h-.2284c-.3969.0359-.7823.1594-1.1315.3625-.3491.2031-.6543.4814-.8958.8169v6.1186h-1.9036v-5.4534c.0426-.4437-.0829-.8871-.3488-1.233-.2659-.3459-.6505-.5658-1.0694-.6116h-.2284c-.4407.0378-.8678.1796-1.2499.4151-.3821.2355-.7095.5586-.9583.9457v5.9473h-1.7608V21.007zM106.096 21.007H108l-3.902 10.0095c-.952 2.2983-2.085 3.0241-3.351 3.0241-.368-.01-.735-.0607-1.0942-.1512v-1.633c.2745.0885.5602.1327.8472.131.952 0 1.58-.6753 2.065-2.016l.172-.4435-3.9599-8.8907h2.0269l2.856 6.6529 2.436-6.6831zM38.6999 1.5221v5.04006c.3515-.37978.7704-.68217 1.2327-.88977.4623-.2076.9588-.3163 1.4609-.31984.4256-.0273.8522.0345 1.2552.18186.4031.14736.7748.37739 1.0939.67695.3191.29955.5793.66277.7658 1.06888.1865.40611.2956.84716.3211 1.29795.0095.12411.0095.24884 0 .37296v5.45335h-1.9036V9.20315c.0304-.25332.0128-.51054-.052-.75653-.0648-.24598-.1754-.47575-.3253-.67581-.1498-.20005-.336-.36634-.5474-.48908-.2115-.12274-.444-.19946-.6838-.22564-.0982-.01005-.197-.01005-.2951 0-.4703.02962-.9269.17885-1.3311.43503-.4043.25619-.7443.61178-.9913 1.03667v5.84651h-1.9036V1.5221h1.9036zM49.9025 2.41923v3.145h3.0172v1.7237h-3.0172V11.32c0 1.1592.5045 1.5422 1.58 1.5422.5779-.0002 1.1502-.1201 1.6847-.3528v1.6935c-.7195.262-1.476.3915-2.2367.383-.3333.0452-.6716.0202-.9957-.0735-.3241-.0937-.6275-.2543-.8928-.4725-.2653-.2183-.4873-.4898-.6532-.7992-.166-.3093-.2726-.6503-.3137-1.0034-.019-.1843-.019-.3702 0-.5544V7.26777h-1.5229v-1.7237h1.4943V2.88292l1.856-.46369zM55.2992 14.3843V5.56423h1.6466v1.09873c.3508-.41453.7788-.74766 1.2571-.97839.4783-.23073.9966-.35408 1.5221-.36226.513-.03422 1.0251.07883 1.4825.32721.4573.24838.8428.62289 1.1159 1.084.3727-.42828.8221-.77365 1.3222-1.01595.5001-.24229 1.0407-.37667 1.5903-.39526.4352-.01474.8684.0686 1.2709.24448.4024.17588.7651.4403 1.0638.77575.2987.33545.5268.73428.6691 1.17009.1423.4358.1955.89864.1562 1.35788v5.51379h-1.9036V8.93099c.0251-.22207.0082-.44721-.0498-.66226-.058-.21506-.1559-.41573-.2879-.59028-.132-.17455-.2956-.31949-.4811-.42635-.1855-.10686-.3893-.17349-.5994-.19601h-.2284c-.3992.03959-.786.16776-1.1353.37617-.3493.20841-.6532.49239-.892.83344v6.1186h-1.9036V8.93099c.025-.22517.0068-.45337-.0536-.6709-.0603-.21754-.1615-.41993-.2975-.59502-.136-.1751-.304-.31929-.4939-.42394-.1899-.10465-.3978-.16759-.6113-.18504h-.2284c-.4407.03779-.8677.17963-1.2498.41512-.3821.23548-.7096.55863-.9584.94569v5.9574h-1.7227v.01zM72.974 1.51202h-1.856V14.3743h1.856V1.51202zM14.6957 0h-.1523L0 1.61282V29.8372L14.5434 39l14.5434-9.1628V1.61282L14.6957 0zm12.4875 28.678l-12.6398 7.9633L1.90359 28.678V17.1362l12.58271 7.9331v1.4414l-8.63277-5.4432v1.391l8.67087 5.5138v1.4717l-8.66135-5.4634v1.3911l8.67085 5.5138 8.747-5.5441v-5.9876l3.9023-2.4696V28.678zm0-13.2655l-3.474 2.1572-1.599 1.008-7.6144-4.7982v1.3911l6.5103 4.1026h-.0666l-.1428.0907-.9518.5746-5.3681-3.3869v1.391l4.2355 2.6713-.9994.7056-3.1981-2.0161v1.3911l2.1035 1.3104-2.1415 1.3608-12.51611-7.8826L14.4958 7.49961l12.6874 7.91289zm0-1.4011L14.4768 6.04807 1.90359 14.0013V3.41716L14.5529 2.01602l12.6398 1.40114V14.0114h-.0095z" fill="#fff"/></svg>