<svg width="152" height="152" fill="none" xmlns="http://www.w3.org/2000/svg"><path fill="#E84D37" d="M0 0h152v152H0z"/><path d="M76.1221 24.7094c4.1302-.001 8.1883 1.0603 11.7675 3.0775s6.5539 4.9196 8.626 8.4163c2.0721 3.4967 3.169 7.4649 3.1806 11.5071.0116 4.0422-1.0623 8.0165-3.1143 11.5245 1.4234.1989 2.7621.7819 3.8661 1.6835 1.104.9016 1.929 2.0863 2.384 3.4213.455 1.335.521 2.7675.19 4.1371-.33 1.3695-1.043 2.622-2.06 3.617-1.0168.9951-2.2965 1.6934-3.6959 2.0167-1.3994.3233-2.8632.2588-4.2272-.1863-1.3641-.445-2.5746-1.253-3.4958-2.3334-.9213-1.0804-1.5169-2.3906-1.7202-3.7837-.2917.1632-.5917.3181-.8917.4731-.4169 2.5116-1.7333 4.7962-3.7136 6.4449-1.9804 1.6487-4.4956 2.554-7.0955 2.554-2.6 0-5.1152-.9053-7.0955-2.554-1.9804-1.6487-3.2968-3.9333-3.7136-6.4449-.3001-.155-.6001-.3099-.8918-.4731-.2027 1.3944-.7986 2.7059-1.7207 3.7872-.922 1.0814-2.1338 1.8898-3.4993 2.3346-1.3654.4448-2.8305.5083-4.2308.1834-1.4003-.3249-2.6804-1.0253-3.6965-2.0226-1.0162-.9973-1.7282-2.2521-2.0561-3.6235-.328-1.3713-.2589-2.805.1995-4.1401.4583-1.3351 1.2878-2.5187 2.3954-3.418 1.1075-.8993 2.4493-1.4787 3.8746-1.6732-2.051-3.5062-3.1249-7.4782-3.1144-11.5184.0105-4.0401 1.1052-8.0066 3.1744-11.5026 2.0692-3.496 5.0403-6.3988 8.616-8.4177 3.5758-2.019 7.6306-3.0834 11.7588-3.0867zm0-5.7094c-4.6277-.0028-9.1907 1.0638-13.3176 3.113-4.1269 2.0492-7.7011 5.023-10.4317 8.6795-2.7307 3.6565-4.5406 7.8924-5.2825 12.3628-.7418 4.4704-.3947 9.0491 1.0131 13.3635-2.7283 2.1288-4.5124 5.2057-4.9808 8.5897-.4683 3.3841.4153 6.8145 2.4667 9.577 2.0515 2.7624 5.1127 4.6439 8.5461 5.2527 3.4335.6087 6.9745-.1022 9.8858-1.9848 1.572 1.5965 3.4568 2.8665 5.5417 3.7339 2.0849.8674 4.327 1.3144 6.5925 1.3144 2.2655 0 4.5077-.447 6.5926-1.3144 2.0848-.8674 3.9696-2.1374 5.5416-3.7339 2.9124 1.7737 6.4037 2.4004 9.7697 1.7537 3.3657-.6467 6.3557-2.5186 8.3677-5.2381 2.011-2.7196 2.893-6.0844 2.469-9.4157-.424-3.3313-2.124-6.3812-4.755-8.5345 1.408-4.3144 1.755-8.8931 1.013-13.3635s-2.552-8.7063-5.2826-12.3628c-2.7307-3.6565-6.3049-6.6303-10.4318-8.6795-4.1269-2.0492-8.6899-3.1158-13.3175-3.113z" fill="#fff"/><path d="M95.4818 83.2795c-2.2948-.005-4.5641-.4714-6.6672-1.3703-.3083.2447-.6333.4649-.9584.6933l.4417.4241-3.2502 3.181-1.3918-1.3621c-.575.2202-1.1584.4159-1.7584.5872l1.9668 1.9249-3.2419 3.1809-3.2669-3.1809 1.2917-1.2642c-.8292.1035-1.6641.158-2.5001.1631-.8109-.0018-1.6209-.0536-2.4252-.155l1.2834 1.2561-3.2502 3.1809-3.2502-3.1809 1.9501-1.9086c-.5933-.1663-1.1774-.3623-1.7501-.5872l-1.4001 1.3458-3.2836-3.181.4084-.3996c-.3417-.2366-.6751-.465-1.0001-.7178-2.103.8989-4.3723 1.3653-6.6671 1.3703h-.5001c-.0632.4445-.0175.8974.1334 1.3213l16.9845 46.5882c.0186.056.0409.111.0667.163.0227.057.0506.112.0833.164.0584.114.125.22.1917.326l.075.106c.1026.134.2169.26.3417.375l.0833.065.3251.245.15.082c.1153.062.2351.117.3583.163h.0917l.3334.081h.1333c.3087.055.6247.055.9334 0h.1417l.325-.081h.1417c.1198-.048.2367-.103.35-.163l.15-.09c.117-.067.226-.146.325-.237l.0917-.065c.1226-.117.2367-.243.3417-.375l.0667-.106c.0745-.104.1414-.213.2-.326l.15-.327 17.0179-46.6127c.1548-.423.2005-.8768.1333-1.3213-.1667 0-.2917.0245-.5.0245zM83.8143 96.0277l-3.2502 3.1809-3.2086-3.1809 3.2419-3.181 3.2169 3.181zm-10.9091 4.3313l3.2502-3.1813 3.2502 3.1813-3.2502 3.181-3.2502-3.181zm6.5004 8.67l-3.2502 3.181-3.2502-3.181 3.2502-3.181 3.2502 3.181zm-3.2502-20.5132l3.2502 3.1809-3.2502 3.1565-3.2502-3.181 3.2502-3.1564zm-1.1751 7.5119l-3.2502 3.1809-3.2502-3.1809 3.2502-3.181 3.2502 3.181zm-12.4259-11.533l.3167-.3099 3.2503 3.1728-1.8585 1.7862-1.7085-4.6491zm2.3002 6.3864l2.4168-2.3653 3.2419 3.1809-3.2085 3.1565-1.4918-1.46-.9584-2.5121zm2.3585 6.419l.0917-.0898 3.2419 3.1807-1.6251 1.632-1.7085-4.7229zm3.4752 9.5839l-1.1834-3.263 2.1919-2.137 3.2502 3.181-3.2169 3.238-1.0418-1.019zm2.8586 7.846l-1.5585-4.258 2.9586 2.888-1.4001 1.37zm2.5418 6.982l-1.9251-5.286 1.9585-1.916 1.9084 1.868-1.9418 5.334zm2.5669-7.031l-1.3001-1.321 2.8419-2.79-1.5418 4.111zm2.8669-7.691l-.9418.913-3.2252-3.213 3.2419-3.173 2.1418 2.088-1.2167 3.385zm1.8501-5.082l-1.5751-1.549 3.2502-3.1813v.0408l-1.6751 4.6895zm3.0585-8.3924l-1.4167 1.3376-3.2503-3.181 3.2503-3.1809 2.3418 2.3408-.9251 2.6835zm1.5668-4.3718l-1.8085-1.7781 3.2503-3.1809.2667.261-1.7085 4.698z" fill="#fff"/></svg>