<svg width="154" height="64" fill="none" xmlns="http://www.w3.org/2000/svg"><path d="M59.3411 43.1507c-.738-.0866-1.4847.0453-2.152.3801 0 0-3.0026 2.5785-17.8559-.3904-10.9198-2.1881-16.5948-1.9621-16.5948-1.9621s1.8316-12.8412 1.3311-16.4368c-.0229-.2652-.1453-.5109-.3414-.6853-.1961-.1744-.4504-.2639-.7095-.2495-1.091 0-1.7516.4315-1.7516 1.0273.0936 2.4274.01 4.8586-.2502 7.2732-.4534 1.2757-1.3046 2.362-2.4213 3.0902-1.1167.7282-2.4364 1.0576-3.7542.9368-4.7543-.339-5.75515-3.8523-6.17552-6.2459-.42038-2.3936-.66059-9.0813.59052-11.8139 0 0 7.1664.2568 11.6704-3.688 4.5041-3.9448 4.2238-7.35547 2.0919-8.81423-2.1319-1.45876-7.1264-1.20193-10.9598 2.3936-2.20099 1.9733-3.93912 4.43153-5.08454 7.19113 0 0-5.63503-1.2328-4.34388-7.27331 1.37123-6.3076 9.76872-5.56795 9.76872-5.56795 1.7516.34928 1.8316.51365 2.4122-.08218.5805-.59583 1.0009-2.1367779-1.7516-2.22923464C10.3072-.0882313 2.04986 1.30889.46845 6.93848-1.22306 12.9276 1.89973 17.2114 6.09348 17.8792c0 0-2.29205 10.3757.54048 15.5122.78519 1.6232 2.02265 2.9703 3.55524 3.8702 1.5326.8999 3.2912 1.312 5.0525 1.1841 1.6514 0 4.574-.9452 5.4048-2.3115 0 0-.3904 3.6778-.7207 5.0133 0 0-6.9462-.0925-9.1181 1.0273-3.69331 2.0032-2.92262 6.6979-1.50135 8.3621 1.20105 1.4177 4.81435 2.1882 7.42665.9246 1.4951-.7385 2.7866-1.849 3.7568-3.2306.9702-1.3815 1.5883-2.9902 1.7982-4.6796 4.2262-.2232 8.46.2485 12.5412 1.3972 6.1755 1.8902 14.7732 3.6571 17.3555 3.6571s8.0071-.7602 8.3374-2.9689c.1802-1.4587-.3503-2.2189-1.181-2.486zM15.8722 8.81843s3.283-2.56824 4.8544-.96566c.3528.39058.5562.89886.5727 1.4312.0166.53235-.1548 1.05293-.4827 1.46573-.6606.8835-2.4021 3.6778-10.6695 5.0646 0 0 2.6023-4.6845 5.7251-6.99587zm.2703 39.97207s-4.5341 2.5375-5.0045-.904c-.1818-.7176-.1179-1.4775.1809-2.1526s.8144-1.2243 1.4606-1.5559c.7907-.4007 1.8716-.904 6.5858-.7294-.0528 1.0976-.3762 2.1635-.9399 3.0978-.5637.9343-1.3492 1.7064-2.2829 2.2441z" fill="#FBFCFB"/><path d="M73.6439 24.382V31.46c-.0792.9248-.3745 1.8164-.8608 2.5991-.3074.5685-.7068 1.0791-1.1811 1.5101-.5304.4726-.8808-.5855-1.0809-1.0273-1.3913-2.9894-.7207-6.9959-.1802-10.1291.2502-1.4999-2.7124-1.1095-2.9426.226-.5399 2.6707-.7251 5.4042-.5505 8.1259-.2624.0212-.5174.099-.7485.2282-.2311.1292-.4331.307-.5927.5217-.5105 1.1198-2.0018 4.8386-3.8335 3.349-1.3211-1.0273-1.4613-3.8421-1.6014-5.4138-.1594-2.1787.1199-4.3678.8208-6.4309-.0601.1746 1.141-2.9073 1.6714-1.7567.1435.5483.163 1.123.0572 1.6802-.1058.5573-.3342 1.0824-.6677 1.5353-1.5714 1.2122.8708 1.7155 1.8216.9759 1.8016-1.3869 3.0027-5.8659-.07-6.4001-3.4731-.5958-5.4449 2.9997-6.1756 5.8556-.3873 1.6401-.5556 3.3266-.5004 5.0132-.4804.863-2.1019 3.6367-3.0527 4.1092-1.121.5958-1.101-.2363-1.061-.7705.0401-.5341.5405-5.2905.8107-8.4957.2369-1.2724.0611-2.5895-.5004-3.7496-.4304-.8938-4.0036-2.897-7.1464.8629-1.7705 1.9836-2.854 4.5112-3.0827 7.1911-.2102.4314-.4404.8937-.7107 1.3971-1.5013 2.8251-3.393 4.0167-4.0636 2.0546-.6745-2.0439-.9301-4.2089-.7507-6.359 2.3323-3.7055 4.0441-7.7854 5.0645-12.0707 1.5014-6.8418 1.2211-10.24216.4104-10.81744-.8107-.57529-4.2538-1.99296-6.3256 6.42064-1.5371 5.9865-2.0752 12.197-1.5915 18.368-.3202.6986-.7206 1.541-1.2311 2.4964-1.5013 2.825-3.383 4.0167-4.0636 2.0545-.661-2.0468-.9029-4.2117-.7106-6.3589 2.3322-3.7055 4.044-7.7854 5.0645-12.0708 1.5514-6.9342 1.2411-10.33456.4304-10.90984-.8107-.57529-4.2538-1.99296-6.3157 6.42064-2.0618 8.4135-2.4722 17.5873-.5004 23.7511 0 0 1.081 3.4722 3.1028 3.2154 1.6715-.2157 3.6632-1.9005 4.8343-5.044.1324.6178.2961 1.2282.4904 1.8286 0 0 1.081 3.4722 3.1028 3.2154 1.3712-.1746 3.0027-1.356 4.1437-3.5134.7106 1.88 2.242 3.4312 4.2138 3.0819 2.6724-.4931 3.2228-1.9827 3.2228-1.9827s-.05 2.445 1.6615 2.445c1.5214 0 2.7325-.9143 3.9335-3.2462.4104-.7911.6506-1.2533.7807-1.5204.3504 2.2086 1.2412 4.1708 3.0027 4.9618 3.0027 1.3355 5.6251-1.2019 7.1664-3.7085.1976.604.5198 1.1572.9448 1.6217.4249.4645.9425.8294 1.5174 1.0698.6555.2114 1.3548.2341 2.022.0656.6671-.1684 1.2764-.5216 1.7614-1.021v3.6161c-.5487-.03-1.0924.1212-1.5514.4314-1.5323 1.2905-2.7208 2.9587-3.4542 4.8487-.7334 1.8901-.9879 3.9401-.7395 5.9585.0422.5461.2156 1.0729.5045 1.5335.2889.4606.6844.8406 1.1513 1.1061.4668.2656.9904.4083 1.5241.4156.5336.0072 1.0608-.1212 1.5343-.3739 3.1028-1.3869 3.5732-6.1638 3.8334-9.0814.6306-7.0164.1401-14.3205.1401-21.3575 0-1.2943-2.9025-.6882-2.9025.3699zM30.2751 12.8763c.6906-2.7224 1.3312-3.81132 2.0018-3.81132.6706 0 .9308.72938.4604 3.08192-.8728 4.5121-2.2463 8.9067-4.0937 13.098 0 0 .9409-9.636 1.6315-12.3686zm8.4275 0c.6906-2.7224 1.3312-3.81132 1.9518-3.81132.6205 0 .9408.72938.4704 3.08192-.4704 2.3525-2.0018 8.8553-4.0937 13.098 0 0 1.0009-9.636 1.6715-12.3686zm12.8715 12.8103c-.08.5959-.4604 4.4071-1.0009 6.4617-.5405 2.0546-.9108 2.784-2.5322 3.4928-1.6215.7089-2.4422-1.4587-2.4422-1.4587-1.151-3.2874.3903-6.1638 1.6715-8.1362 1.2811-1.9724 2.5723-2.1471 3.3129-2.0546.1736.0444.3369.1236.4806.2328.1438.1093.2651.2465.3571.404.0921.1574.153.3319.1792.5134.0263.1816.0175.3668-.026.5448zM73.5638 44.178c.0604 2.7618-.4799 5.5027-1.5814 8.0232-.7007.1438-1.0009-.1233-1.2411-1.2739-.1652-1.1064-.1652-2.2322 0-3.3387.3273-2.0324 1.3066-3.8944 2.7824-5.2906.0501.6472.0501 1.2739.0401 1.88zM92.3806 21.4747c-1.3018-.5894-2.4771-1.4375-3.4579-2.4954-.9809-1.0579-1.7481-2.3047-2.2572-3.6684-1.2812-3.9242 2.9226-6.8212 6.2756-6.64656 3.353.17464 5.1446 3.71886 5.0045 6.89316-.0601 1.1197-.7507 3.6469-2.1019 2.332-.8936-1.041-1.4405-2.3473-1.5614-3.7291-.2002-1.2431-3.1028-.5034-2.9026.8013.5805 3.7599 4.524 7.8999 7.9071 3.9653.6921-.8908 1.1792-1.9308 1.4242-3.0422.244-1.1113.241-2.2651-.01-3.3749-.251-1.1099-.7442-2.1469-1.4415-3.03351-.6973-.88659-1.5811-1.5997-2.5851-2.0859-2.2648-.9052-4.7694-.95483-7.0666-.14005-2.2971.81478-4.2375 2.44096-5.4746 4.58826-2.7324 4.9824 2.7525 9.8518 6.636 11.629 6.2355 3.4209 6.4657 14.4335-1.8217 14.5054-1.7025-.0401-3.3524-.6137-4.7282-1.6438-1.3757-1.0302-2.4116-2.4676-2.9687-4.1193-.5705-1.7259-.2802-7.7561 2.0018-8.2184 1.8117-.3596 1.3212-2.0546-.4504-1.7361-3.7133.7396-5.0845 5.6604-4.7242 9.1018.5805 5.4858 5.585 8.5574 10.6395 8.5163 2.2362.0659 4.4244-.6736 6.1849-2.0903 1.7606-1.4167 2.9825-3.4212 3.4537-5.6658.3719-2.211-.022-4.4858-1.1135-6.4299-1.0914-1.944-2.8115-3.4345-4.8618-4.2129z" fill="#FBFCFB"/><path d="M110.977 37.7985c-2.852-1.6026-1.221-7.7767-.79-10.1497.28-1.5307 1.551-3.8935-.491-4.4174-2.392-.5958-5.235 1.7361-7.286 3.9654-.002-2.5719.182-5.1403.55-7.6842 3.165-1.6208 5.699-4.2979 7.186-7.5917 1.302-2.671 1.942-8.21841-2.462-6.59528-4.003 1.43822-5.375 6.16378-6.626 9.95448-.472 1.4663-.837 2.9669-1.0906 4.4893-.3992.172-.8068.3229-1.2211.452-1.6615.5342-1.4413 1.4485.2402.9143l.8107-.2671c-.8007 5.7632-.2602 11.8037.2498 17.4641 0 .5547 3.003 0 2.893-.8013-.22-2.5272-.41-5.0543-.49-7.5609.241-.0726.459-.211.63-.4007.921-1.1867 1.954-2.2774 3.083-3.2565.3-.2774.61-.5342.921-.7808l.46-.3492c.671-.5445.801-.5548.38 0-.156.9796-.364 1.95-.62 2.9072-.551 3.0819-2.132 9.1327 1.341 11.0743.751.3903 3.453-.7602 2.332-1.3663zm-6.496-24.7682c.311-.9142.721-1.8183 1.101-2.7017.471-1.10952 1.732-4.90025 2.643-3.08193.73 1.44849-.421 3.82153-.931 5.20843-.804 2.1683-2.192 4.0568-4.004 5.4446.292-1.6483.69-3.2749 1.191-4.8694z" fill="#FBFCFB"/><path d="M121.737 30.5971c0-3.3798-.37-7.715-4.304-8.0745-4.314-.4007-6.005 4.2324-6.065 7.6944-.007.1225.024.2441.086.3487.063.1045.155.1871.264.2369 0 3.236.761 7.4581 4.514 7.3862 4.184-.0616 5.505-3.8112 5.505-7.5917zm-5.005 5.6296c-2.442-1.0273-2.222-5.3522-2.061-7.4376.014-.1048 0-.2118-.043-.3083-.043-.0965-.111-.1784-.198-.2362.301-2.0546 1.081-5.1365 2.863-3.6058 1.421 1.2533 1.451 4.2633 1.521 5.9994.06 1.2122-.09 6.3487-2.072 5.5885h-.01zM153.265 49.1398c-1.121-2.9586-3.583-4.1092-6.296-4.2324-.302-.7511-.682-1.4673-1.131-2.1368-3.913-5.9481-13.201-5.1365-19.497-2.0546 0-.9348-.09-1.8697-.13-2.8045 1.252.1038 2.51-.1252 3.651-.665 1.141-.5398 2.128-1.3722 2.865-2.4169 1.671-2.4553 1.431-6.811.77-9.5642-.62-2.5887-3.082-2.1265-4.934-1.2635-.681.3311-1.309.7677-1.862 1.2944 0-.6883.11-1.3869.16-2.0546.111-1.5821-2.842-1.1814-2.942.2157-.461 6.359-.3 12.6974-.441 19.0461-1.776 1.4978-3.187 3.4006-4.12 5.5569-.933 2.1562-1.362 4.5063-1.254 6.8631 0 2.332 1.931 4.1092 4.003 2.445 2.893-2.2806 3.774-6.811 4.174-10.273.164-1.5451.217-3.1005.16-4.6536 2.257-1.5191 4.893-2.3369 7.592-2.3551 2.699-.0183 5.345.7639 7.622 2.2523.977.7083 1.76 1.6637 2.272 2.7737-1.601.2938-3.156.8051-4.624 1.5204-1.712.8424-4.254 2.8354-4.134 5.0646-.02.7054.197 1.3963.615 1.9572.417.561 1.009.958 1.677 1.1247.091.0475.189.0787.29.0924 6.146 1.0273 10.72-2.7018 9.839-7.9512 3.003 1.6745 4.114 5.5576 3.053 8.8964-2.392 7.4992-11.601 9.1737-16.965 4.1605-.581-.5342-3.193.5958-2.733 1.0273 7.747 7.263 27.044.5445 22.32-11.8653zm-29.967-1.8183c-.085 1.8139-.471 3.5996-1.141 5.2803-.25.565-.52 1.1095-.811 1.6437 0 0-.26.0616-.31-.7397-.004-2.8781.81-5.6949 2.342-8.1053-.02.6369-.04 1.2841-.08 1.921zm3.133-18.3475c.058-.0506.108-.1094.15-.1746.538-.9302 1.176-1.7952 1.902-2.5786.524-.6112 1.134-1.1377 1.811-1.5615.321.1644.651 1.0273.771 2.1882.31 2.8559.441 10.3757-3.943 9.6668-.342-.0156-.684.044-1.001.1747-.01-2.6093.13-5.157.31-7.715zm13.092 24.388h-.06c-1.682-.4109-1.502-2.0546-1.281-3.1641.49-2.599 3.573-3.9961 6.115-4.1091 1.291 3.6982.3 8.1259-4.774 7.2732z" fill="#FBFCFB"/></svg>